<svg xmlns="http://www.w3.org/2000/svg" class="platform-icon android" style="fill:#000;height:22px" viewBox="0 0 553 553">
<path d="M76.8 179.1a33 33 0 0 0-24.3 10 32.6 32.6 0 0 0-10 24V356a33 33 0 0 0 10 24.2 33 33 0 0 0 24.3 10 32 32 0 0 0 24-10 33.3 33.3 0 0 0 9.9-24.2V213c0-9.3-3.3-17.2-10-23.9a32.6 32.6 0 0 0-24-10zM352 50.8l23.6-43.5c1.5-2.9 1-5-1.7-6.6-2.9-1.4-5-.7-6.6 2l-24 43.8c-21-9.3-43.3-14-66.8-14s-45.7 4.7-66.8 14L185.8 2.7c-1.6-2.7-3.8-3.4-6.7-2-2.6 1.5-3.2 3.7-1.6 6.6L201 50.8c-24 12.2-43 29.2-57.2 51a128.9 128.9 0 0 0-21.2 71.7H430c0-26-7.1-49.8-21.3-71.6a146.3 146.3 0 0 0-56.8-51zm-136.5 63.4a12.5 12.5 0 0 1-9.1 3.8 12.7 12.7 0 0 1-12.6-13c0-3.5 1.2-6.6 3.6-9.1 2.5-2.6 5.5-3.8 9-3.8s6.6 1.2 9.1 3.8c2.6 2.5 3.9 5.6 3.9 9.1 0 3.6-1.3 6.6-3.9 9.2zm140.1 0a12 12 0 0 1-9 3.8c-3.5 0-6.5-1.3-9-3.8a12.4 12.4 0 0 1-4-9.2c0-3.5 1.4-6.6 4-9.1a12 12 0 0 1 9-3.8 12 12 0 0 1 9 3.8c2.5 2.5 3.7 5.6 3.7 9.1 0 3.6-1.2 6.6-3.7 9.2zM124 406.8c0 10.2 3.5 18.8 10.6 26 7 7 15.7 10.6 26 10.6H185l.4 75.4c0 9.5 3.3 17.6 10 24.3s14.6 10 23.9 10c9.5 0 17.6-3.4 24.2-10s10-14.8 10-24.3v-75.4h45.8v75.4c0 9.5 3.4 17.6 10 24.3s14.7 10 24.3 10c9.5 0 17.6-3.4 24.2-10s10-14.8 10-24.3v-75.4h25a35 35 0 0 0 25.5-10.7 35 35 0 0 0 10.7-25.9V185.4H124v221.4zm352.3-227.7a33 33 0 0 0-24 9.8 32.5 32.5 0 0 0-10 24.1v143c0 9.5 3.4 17.6 10 24.2s14.7 10 24 10c9.5 0 17.6-3.3 24.2-10s10-14.7 10-24.2V213a32 32 0 0 0-10-24 33.3 33.3 0 0 0-24.2-9.9z"></path>
</svg>
