<svg xmlns="http://www.w3.org/2000/svg" class="platform-icon browser" style="fill:#000;height:22px" viewBox="461.6 9.3 30 30">
<path d="M476.7 10.3c-7.7 0-14 6.3-14 14s6.3 14 14 14 14-6.3 14-14-6.3-14-14-14m9.8 9h-5.1c-.3-2.1-.8-4-1.4-5.5 2.8.9 5.1 2.9 6.5 5.5m-6.8 5-.1 3h-5.8l-.1-3 .1-3h5.8l.1 3m-3 11h-.9c-.6-1.1-1.4-3.1-1.8-6h5.3c-.4 2.9-1.1 4.8-1.8 6h-.8m-2.7-16c.4-2.9 1.1-4.8 1.8-6h1.8c.6 1.1 1.4 3.1 1.8 6H474zm-.6-5.5c-.6 1.5-1.1 3.4-1.4 5.5h-5.1c1.3-2.6 3.6-4.6 6.5-5.5m-7.3 7.5h5.7l-.1 3 .1 3h-5.7c-.3-1-.4-2-.4-3s.1-2 .4-3m.8 8h5.1c.3 2.1.8 4 1.4 5.5-2.9-.9-5.2-2.9-6.5-5.5m13.1 5.5c.6-1.5 1.1-3.4 1.4-5.5h5.1a11.4 11.4 0 0 1-6.5 5.5m7.2-7.5h-5.7l.1-3-.1-3h5.7c.3 1 .4 2 .4 3 .1 1.1-.1 2.1-.4 3"></path>
</svg>
